<svg width="16" height="17" viewBox="0 0 16 17" fill="none" xmlns="http://www.w3.org/2000/svg">
<path d="M1.20876 9.49971H12.3788L7.49876 14.3797C7.10876 14.7697 7.10876 15.4097 7.49876 15.7997C7.88876 16.1897 8.51875 16.1897 8.90876 15.7997L15.4988 9.20971C15.8888 8.81971 15.8888 8.18971 15.4988 7.79971L8.91876 1.19971C8.73192 1.01246 8.47827 0.907227 8.21376 0.907227C7.94924 0.907227 7.69559 1.01246 7.50876 1.19971C7.11876 1.58971 7.11876 2.21971 7.50876 2.60971L12.3788 7.49971H1.20876C0.658755 7.49971 0.208755 7.94971 0.208755 8.49971C0.208755 9.04971 0.658755 9.49971 1.20876 9.49971Z" fill="#ffff"/>
</svg>
